<svg width="881" height="665" viewBox="0 0 881 665" fill="none" xmlns="http://www.w3.org/2000/svg">
<path d="M1.28699 43.2222C1.28699 35.4197 5.17382 26.3717 7.39962 17.2179C9.0545 20.3191 12.5125 22.594 15.6759 24C17.3218 24.7315 18.9351 27 20.787 27C23.0104 27 24.9414 27.1201 26.787 28.5556C31.0829 31.8968 38.2914 31.8559 43.287 34.2222C48.7089 36.7905 55.026 38.4883 59.287 43C61.6682 45.5213 65.457 50.0149 66.2314 53.5C66.6155 55.2282 66.9877 58.3307 68.287 59.5C70.2373 61.2553 69.54 65.5543 71.287 68C74.9832 73.1747 74.4753 82.0252 77.287 88C79.8056 93.3521 80.2453 99.3193 82.0648 104.778C83.8863 110.242 89.9482 121 96.7314 121C104.387 121 81.4424 122 73.787 122H56.1759C49.3515 122 44.1946 120.411 37.8425 118.778C30.535 116.899 25.6943 109.724 19.0648 106.778C15.7259 105.294 13.2726 99.3028 10.787 96.5556C8.14909 93.64 5.92351 90.3235 3.787 87C-0.375915 78.5939 1.28693 69.6111 1.28699 64.5556V43.2222Z" fill="url(#paint0_linear_485_219)"/>
<path d="M820 109.231C816.979 100.644 815.5 99.0087 809 95.8976L801 92.5087L804 89.5087C805.295 89.5087 805.907 88.5087 807.25 88.5087C808.497 88.5087 809.6 88.0087 810.75 88.0087H816.806C820.978 88.0087 824.625 87.7842 828.5 89.6198C832.82 91.6662 837.294 93.1696 841.222 95.8976C845.251 98.6951 849.623 100.357 853.528 103.481C856.977 106.24 860.812 108.321 864 111.509C870.107 117.616 876.718 125.287 877.972 134.064C878.648 138.797 879.898 143.837 880 148.62C880.137 155.038 878.332 150.578 875 149.898C872.044 149.294 869.412 147.179 866.528 146.314C863.927 145.534 861.421 145.302 858.889 144.231C855.5 142.797 851.885 142.643 848.5 141.259C845.752 140.134 843.054 138.711 840.472 137.259C830.348 131.564 823.77 119.945 820 109.231Z" fill="url(#paint1_linear_485_219)"/>
<g filter="url(#filter0_f_485_219)">
<path d="M61.2288 445.345C65.9251 440.036 71.6576 434.153 78.4417 431.931C86.0827 430.89 97.6741 429.199 104.716 427.882C106.483 426.623 108.233 425.89 109.84 426.013C112.389 426.209 109.685 426.952 104.716 427.882C99.706 431.45 94.5486 439.247 92.0672 443.767C91.1019 446.66 88.4546 449.285 87.3279 452.381C86.4781 454.715 85.8862 457.173 84.6949 459.383C83.95 460.765 84.1723 462.712 83.181 463.888C81.1373 466.312 82.5886 474.139 82.5886 477.268V493.772C82.5886 500.871 85.4552 510.129 89.3684 516.096C93.7512 522.778 99.7431 528.519 106.581 532.567C111.092 535.237 115.77 538.521 121.161 539.011C128.133 539.644 135.422 539.044 142.422 539.044C155.003 539.044 167.685 536.121 178.428 529.444C182.084 527.171 184.522 524.082 186.721 520.501C187.847 518.669 189.665 517.085 190.408 515.044C190.87 513.774 191 509.681 191 511.033V513.893C191 516.531 189.986 519.36 189.354 521.882C186.985 531.349 183.787 539.517 177.967 547.592C170.578 557.843 156.31 561.729 145.45 566.792C136.421 571.001 127.496 571 117.808 571H117.541C107.159 571 97.1928 569.378 87.3937 565.674C75.5064 561.181 62.682 553.738 55.3376 543.055C50.6535 536.241 47.1055 528.775 43.7855 521.257C40.1401 513.003 41.1197 502.367 41.1197 493.608C41.1197 485.067 41.7063 478.008 44.6742 469.937C48.0626 460.723 54.7934 452.619 61.2288 445.345Z" fill="url(#paint2_linear_485_219)"/>
</g>
<g filter="url(#filter1_f_485_219)">
<path d="M727.555 495.238C713.887 512.873 704.776 533.44 701 555.428V566.758H713.038C746.527 566.758 782.191 568.989 811.152 549.016C826.086 538.716 835.301 522.254 841.208 505.466C844.853 495.107 845.486 484.026 846.834 473.247C847.477 468.103 847.207 462.499 848.997 457.55C849.213 456.953 851.836 450.352 850.728 450.036C849.585 449.709 848.428 451.704 847.581 452.042C832.709 457.991 818.209 460.54 802.104 460.54C787.681 460.54 772.248 462.658 758.751 467.975C746.534 472.788 735.384 485.136 727.555 495.238Z" fill="url(#paint3_linear_485_219)"/>
</g>
<path d="M581.945 24.3927C576.393 30.4286 572.418 37.6795 570.353 45.6162L570.002 49.7661L574.412 50.1392C586.678 51.1772 599.672 53.0998 610.899 46.6815C616.688 43.3719 620.573 37.6278 623.257 31.6617C624.913 27.9804 625.489 23.9413 626.317 20.0347C626.711 18.1707 626.787 16.1095 627.596 14.3524C627.693 14.1405 628.858 11.8041 628.462 11.6538C628.054 11.4987 627.568 12.1933 627.248 12.2912C621.616 14.0091 616.226 14.4933 610.327 13.9941C605.044 13.5471 599.325 13.8447 594.217 15.3738C589.593 16.758 585.126 20.9352 581.945 24.3927Z" fill="#D2FFCB"/>
<ellipse cx="301" cy="12" rx="5" ry="10" transform="rotate(21.266 301 12)" fill="#ED2C27"/>
<ellipse cx="106.887" cy="303.247" rx="7.58137" ry="15.1627" transform="rotate(-63.5097 106.887 303.247)" fill="#ED2C27"/>
<g filter="url(#filter2_f_485_219)">
<ellipse cx="438.507" cy="630.464" rx="9.60228" ry="19.2046" transform="rotate(28.0561 438.507 630.464)" fill="#ED2C27"/>
</g>
<defs>
<filter id="filter0_f_485_219" x="25" y="410" width="182" height="177" filterUnits="userSpaceOnUse" color-interpolation-filters="sRGB">
<feFlood flood-opacity="0" result="BackgroundImageFix"/>
<feBlend mode="normal" in="SourceGraphic" in2="BackgroundImageFix" result="shape"/>
<feGaussianBlur stdDeviation="8" result="effect1_foregroundBlur_485_219"/>
</filter>
<filter id="filter1_f_485_219" x="685" y="434" width="182" height="148.832" filterUnits="userSpaceOnUse" color-interpolation-filters="sRGB">
<feFlood flood-opacity="0" result="BackgroundImageFix"/>
<feBlend mode="normal" in="SourceGraphic" in2="BackgroundImageFix" result="shape"/>
<feGaussianBlur stdDeviation="8" result="effect1_foregroundBlur_485_219"/>
</filter>
<filter id="filter2_f_485_219" x="410.122" y="596.921" width="56.7705" height="67.0871" filterUnits="userSpaceOnUse" color-interpolation-filters="sRGB">
<feFlood flood-opacity="0" result="BackgroundImageFix"/>
<feBlend mode="normal" in="SourceGraphic" in2="BackgroundImageFix" result="shape"/>
<feGaussianBlur stdDeviation="8" result="effect1_foregroundBlur_485_219"/>
</filter>
<linearGradient id="paint0_linear_485_219" x1="0.958984" y1="67.5" x2="98.2734" y2="67.5" gradientUnits="userSpaceOnUse">
<stop stop-color="#7FCA21" stop-opacity="0.8"/>
<stop offset="1" stop-color="#105200"/>
</linearGradient>
<linearGradient id="paint1_linear_485_219" x1="801" y1="120.019" x2="880.007" y2="120.019" gradientUnits="userSpaceOnUse">
<stop stop-color="#7FCA21" stop-opacity="0.8"/>
<stop offset="1" stop-color="#105200"/>
</linearGradient>
<linearGradient id="paint2_linear_485_219" x1="41" y1="498.5" x2="191" y2="498.5" gradientUnits="userSpaceOnUse">
<stop stop-color="#7FCA21" stop-opacity="0.8"/>
<stop offset="1" stop-color="#105200"/>
</linearGradient>
<linearGradient id="paint3_linear_485_219" x1="701" y1="508.416" x2="851" y2="508.416" gradientUnits="userSpaceOnUse">
<stop stop-color="#7FCA21" stop-opacity="0.8"/>
<stop offset="1" stop-color="#105200"/>
</linearGradient>
</defs>
</svg>
